<svg width="297" height="47" viewBox="0 0 297 47" fill="none" xmlns="http://www.w3.org/2000/svg">
<g opacity="0.8">
<path opacity="0.6" d="M43.3079 42.624L27.6197 13.8528L58.9961 13.8528L43.3079 42.624Z" fill="url(#paint0_linear_784_356)"/>
<g filter="url(#filter0_d_784_356)">
<path d="M84.9798 32.4434H80.9838L79.6962 28.5029H73.4469L72.1815 32.4434H68.2077L74.5014 15.2495H78.8082L84.9798 32.4434ZM78.8304 25.6724L76.8768 19.7117C76.751 19.3343 76.6622 18.8348 76.6104 18.2132H76.5105C76.4661 18.7164 76.3662 19.2011 76.2108 19.6673L74.2461 25.6724H78.8304ZM93.8709 14.4281H107.28V17.1587H101.408L101.008 19.2899H106.414V29.4353H103.395V21.9539H96.6681V29.5907H93.6489V19.2899H97.6671L98.0667 17.1587H93.8709V14.4281ZM86.1009 32.8319L85.4793 29.5019L87.6993 29.0135V18.0467H85.7013V15.0053H92.8941V18.0467H90.7407V28.2698C91.4881 28.0774 92.2429 27.8739 93.0051 27.6593C92.9607 28.7101 92.9385 29.8275 92.9385 31.0115C90.4521 31.6035 88.1729 32.2103 86.1009 32.8319ZM98.7549 23.3303H101.685C101.67 25.2839 101.4 27.0118 100.875 28.514C103.117 29.9126 105.378 31.4407 107.657 33.0983L105.77 35.4959C104.186 34.1861 102.166 32.658 99.7095 30.9116C98.3627 32.9318 96.2019 34.4895 93.2271 35.5847C92.6795 34.4451 92.1171 33.4387 91.5399 32.5655C94.2853 31.9069 96.1723 30.8672 97.2009 29.4464C98.2369 28.0256 98.7549 25.9869 98.7549 23.3303ZM110.521 35.4071V14.8943H128.014V35.4071H124.862V33.8975H113.673V35.4071H110.521ZM124.862 17.8247H113.673V20.2667H124.862V17.8247ZM113.673 25.5503H124.862V23.1083H113.673V25.5503ZM113.673 30.9671H124.862V28.3919H113.673V30.9671ZM131.233 16.9811H140.513C140.284 16.2263 139.973 15.2939 139.581 14.1839L142.977 13.4957C143.532 14.9683 143.954 16.1301 144.243 16.9811H152.701V19.9781H149.404C148.287 23.3377 146.677 26.1756 144.576 28.4918C146.855 30.068 149.667 31.2705 153.012 32.0993C151.783 33.5941 150.969 34.6819 150.57 35.3627C147.188 34.2305 144.317 32.7357 141.956 30.8783C139.581 32.6691 136.665 34.2083 133.209 35.4959C132.41 34.2083 131.67 33.1353 130.989 32.2769C134.312 31.2409 137.094 29.9607 139.336 28.4363C137.205 26.0609 135.696 23.2415 134.808 19.9781H131.233V16.9811ZM145.63 19.9781H138.238C139 22.4053 140.236 24.5032 141.945 26.2718C143.669 24.4958 144.898 22.3979 145.63 19.9781ZM160.271 25.4837H167.353V21.2435H164.3C163.871 22.6421 163.416 23.8927 162.935 24.9953C162.121 24.5513 161.196 24.1147 160.16 23.6855C161.152 21.3027 161.995 18.4167 162.691 15.0275L165.688 15.7601C165.495 16.6777 165.296 17.5509 165.088 18.3797H167.353V13.5845H170.572V18.3797H175.212V21.2435H170.572V25.4837H175.811V28.3475H170.572V35.4737H167.353V28.3475H160.271V25.4837ZM157.873 13.6067L160.937 14.4947C160.404 16.0783 159.857 17.5694 159.294 18.968V35.4515H156.319V25.3394C155.72 26.4272 155.106 27.4299 154.477 28.3475C154.21 26.7343 153.951 25.3505 153.7 24.1961C155.254 21.2657 156.645 17.7359 157.873 13.6067ZM198.477 23.6189H195.991V35.2961H193.06V23.6189H190.707V24.2627C190.707 29.2725 189.723 33.0243 187.755 35.5181C186.852 34.6745 185.971 33.9567 185.113 33.3647C186.918 31.4111 187.821 28.3401 187.821 24.1517V15.2495C191.654 14.9387 194.762 14.4059 197.145 13.6511L198.411 16.6259C196.324 17.1587 193.756 17.5805 190.707 17.8913V20.8661H198.477V23.6189ZM186.245 28.2587H180.773C180.558 31.5813 179.933 33.9937 178.897 35.4959C178.127 34.6227 177.291 33.7791 176.388 32.9651C177.498 31.2187 178.038 28.5177 178.009 24.8621V15.4493C180.969 15.2273 183.596 14.7019 185.89 13.8731L187.155 16.7813C185.113 17.3141 183.011 17.6471 180.85 17.7803V20.0003H186.245V28.2587ZM180.85 25.7279H183.448V22.5311H180.85V25.7279ZM199.765 15.8933H205.959C206.284 15.0793 206.565 14.2431 206.802 13.3847L210.154 13.6289C209.955 14.3985 209.725 15.1533 209.466 15.8933H220.944V18.8459H208.267C207.394 20.6959 206.329 22.446 205.071 24.0962V35.4071H202.096V27.4706C201.548 28.0034 200.978 28.5251 200.386 29.0357C199.957 27.6889 199.543 26.5419 199.143 25.5947C201.385 23.5819 203.195 21.3323 204.571 18.8459H199.765V15.8933ZM205.87 31.4333H211.908V26.4605H207.069V23.5301H211.908V19.5341H215.083V23.5301H219.989V26.4605H215.083V31.4333H220.988V34.3637H205.87V31.4333ZM222.165 16.9811H231.444C231.215 16.2263 230.904 15.2939 230.512 14.1839L233.908 13.4957C234.463 14.9683 234.885 16.1301 235.174 16.9811H243.632V19.9781H240.335C239.218 23.3377 237.608 26.1756 235.507 28.4918C237.786 30.068 240.598 31.2705 243.943 32.0993C242.714 33.5941 241.9 34.6819 241.501 35.3627C238.119 34.2305 235.248 32.7357 232.887 30.8783C230.512 32.6691 227.596 34.2083 224.14 35.4959C223.341 34.2083 222.601 33.1353 221.92 32.2769C225.243 31.2409 228.025 29.9607 230.268 28.4363C228.136 26.0609 226.627 23.2415 225.739 19.9781H222.165V16.9811ZM236.561 19.9781H229.169C229.931 22.4053 231.167 24.5032 232.876 26.2718C234.6 24.4958 235.829 22.3979 236.561 19.9781ZM251.202 25.4837H258.284V21.2435H255.232C254.802 22.6421 254.347 23.8927 253.866 24.9953C253.052 24.5513 252.127 24.1147 251.091 23.6855C252.083 21.3027 252.926 18.4167 253.622 15.0275L256.619 15.7601C256.427 16.6777 256.227 17.5509 256.02 18.3797H258.284V13.5845H261.503V18.3797H266.143V21.2435H261.503V25.4837H266.742V28.3475H261.503V35.4737H258.284V28.3475H251.202V25.4837ZM248.805 13.6067L251.868 14.4947C251.335 16.0783 250.788 17.5694 250.225 18.968V35.4515H247.251V25.3394C246.651 26.4272 246.037 27.4299 245.408 28.3475C245.142 26.7343 244.883 25.3505 244.631 24.1961C246.185 21.2657 247.576 17.7359 248.805 13.6067ZM267.808 24.5957H272.825C271.685 23.1971 270.59 21.9465 269.539 20.8439L271.404 19.2011H268.363V16.3151H276.732L276.754 13.6511H279.996C280.003 14.5835 280.007 15.4715 280.007 16.3151H288.432V19.2011H284.746L286.922 20.8439C285.805 22.0501 284.524 23.3007 283.081 24.5957H288.987V27.4817H280.939C282.234 30.0125 285.02 31.6405 289.297 32.3657C288.853 32.9577 288.187 33.9641 287.299 35.3849C283.037 34.6005 280.059 32.4212 278.364 28.847C277.039 31.8958 274.068 34.1343 269.451 35.5625C268.903 34.6449 268.237 33.6681 267.453 32.6321C272.085 31.2853 274.816 29.5685 275.644 27.4817H267.808V24.5957ZM275.112 22.7753L272.925 24.5957H276.421C276.614 23.0417 276.71 21.2435 276.71 19.2011H271.648C272.684 20.1705 273.839 21.3619 275.112 22.7753ZM284.547 19.2011H279.996C279.973 21.3027 279.914 23.1009 279.818 24.5957H283.037L280.995 22.7309C282.304 21.4803 283.488 20.3037 284.547 19.2011Z" fill="#F3FF44"/>
</g>
</g>
<defs>
<filter id="filter0_d_784_356" x="61.4589" y="6.63597" width="234.587" height="35.6978" filterUnits="userSpaceOnUse" color-interpolation-filters="sRGB">
<feFlood flood-opacity="0" result="BackgroundImageFix"/>
<feColorMatrix in="SourceAlpha" type="matrix" values="0 0 0 0 0 0 0 0 0 0 0 0 0 0 0 0 0 0 127 0" result="hardAlpha"/>
<feOffset/>
<feGaussianBlur stdDeviation="3.3744"/>
<feComposite in2="hardAlpha" operator="out"/>
<feColorMatrix type="matrix" values="0 0 0 0 0 0 0 0 0 0 0 0 0 0 0 0 0 0 1 0"/>
<feBlend mode="normal" in2="BackgroundImageFix" result="effect1_dropShadow_784_356"/>
<feBlend mode="normal" in="SourceGraphic" in2="effect1_dropShadow_784_356" result="shape"/>
</filter>
<linearGradient id="paint0_linear_784_356" x1="43.3079" y1="42.624" x2="43.3079" y2="13.4976" gradientUnits="userSpaceOnUse">
<stop stop-color="#F3FF44"/>
<stop offset="1" stop-color="#F3FF44" stop-opacity="0"/>
</linearGradient>
</defs>
</svg>
